# xmcd
#
# Track frame offsets: 
#        150
#        14462
#        27851
#        51408
#        64497
#        74740
#        90170
#        106520
#        125531
#        139734
#
# Disc length: 2183 seconds
#
# Revision: 1
# Processed by: cddbd v1.5.2PL0 Copyright (c) Steve Scherf et al.
# Submitted via: ExactAudioCopy v0.99pb5
#
DISCID=8908850a
DTITLE=Sophie Zelmani - Memory Loves You
DYEAR=2007
DGENRE=Rock
TTITLE0=Memory Loves You - 01.Wait for cry
TTITLE1=Memory Loves You - 02.Memory loves you
TTITLE2=Memory Loves You - 03.Broken sunny day
TTITLE3=Memory Loves You - 04.I got yours
TTITLE4=Memory Loves You - 05.Sorrow
TTITLE5=Memory Loves You - 06.How different
TTITLE6=Memory Loves You - 07.Love on my mind
TTITLE7=Memory Loves You - 08.Travelling
TTITLE8=Memory Loves You - 09.Now you know
TTITLE9=Memory Loves You - 10.Shades
EXTD=YEAR: 2007
EXTT0=
EXTT1=
EXTT2=
EXTT3=
EXTT4=
EXTT5=
EXTT6=
EXTT7=
EXTT8=
EXTT9=
PLAYORDER=
